<svg width="100" height="100" viewBox="0 0 100 100" fill="none" xmlns="http://www.w3.org/2000/svg">
<rect width="100" height="100" rx="22.2227" fill="#E54854"/>
<path d="M49.5564 85.5709C45.9636 85.5709 42.5285 84.6885 39.2509 82.9236C35.9733 81.1588 33.263 78.5115 31.12 74.9818C29.04 71.4521 28 67.0715 28 61.84C28 56.9236 29.04 52.7636 31.12 49.36C33.2 45.9564 35.9103 43.3721 39.2509 41.6073C42.6545 39.8424 46.2158 38.96 49.9345 38.96C53.2752 38.96 56.2061 39.8424 58.7273 41.6073C57.7818 39.023 56.7418 36.7224 55.6073 34.7055C54.4727 32.6255 53.1491 30.703 51.6364 28.9382L38.2109 35.5564L36.1309 31.2073L48.0436 25.3455C46.5939 24.0848 44.9552 22.8558 43.1273 21.6582C41.3624 20.3976 39.4085 19.1685 37.2655 17.9709L39.44 14C44.9236 16.017 49.9345 18.7273 54.4727 22.1309L69.0327 15.04L71.1127 19.3891L58.5382 25.5345C62.8873 29.5685 66.3224 34.2958 68.8436 39.7164C71.3649 45.137 72.6255 51.1879 72.6255 57.8691C72.6255 63.857 71.617 68.9309 69.6 73.0909C67.6461 77.1879 64.9358 80.3079 61.4691 82.4509C58.0024 84.5309 54.0315 85.5709 49.5564 85.5709ZM50.5018 80.9382C53.9055 80.9382 56.4897 79.2679 58.2545 75.9273C60.0824 72.5867 60.9964 67.7333 60.9964 61.3673C60.9964 55.5055 60.0824 51.0933 58.2545 48.1309C56.4267 45.1055 53.8424 43.5927 50.5018 43.5927C47.2242 43.5927 44.703 45.2 42.9382 48.4145C41.2364 51.5661 40.3855 56.2303 40.3855 62.4073C40.3855 68.4582 41.2679 73.0594 43.0327 76.2109C44.7976 79.3624 47.2873 80.9382 50.5018 80.9382Z" fill="white"/>
</svg>
